<svg width="354" height="726" viewBox="0 0 354 726" fill="none" xmlns="http://www.w3.org/2000/svg">
<path d="M62.962 303.558C122.8 271.259 169.442 352.627 185.283 397.349C189.545 436.955 138.158 418.228 148.318 444.166C161.018 476.589 221.134 483.992 205.466 515.749C189.798 547.506 97.9744 502.244 69.927 569.615C41.8796 636.986 -49.5662 580.854 -46.3788 546.104C-43.1914 511.353 -57.764 485.497 -81.9827 449.435C-207.568 368.453 -166.596 278.751 -145.584 248.715C-124.573 218.678 -62.0386 232.8 -44.879 261.469C-27.7194 290.138 -11.8355 343.932 62.962 303.558Z" stroke="#0B3C69" stroke-opacity="0.17"/>
<path d="M74.3996 266.178C148.681 226.08 206.565 327.067 226.222 382.572C231.507 431.729 167.723 408.494 180.331 440.686C196.091 480.926 270.712 490.106 251.258 529.524C231.805 568.942 117.831 512.777 83.0066 596.401C48.1818 680.025 -65.3213 610.368 -61.3598 567.236C-57.3982 524.105 -75.4833 492.014 -105.541 447.259C-261.417 346.764 -210.546 235.422 -184.46 198.139C-158.374 160.855 -80.7528 178.374 -59.4568 213.954C-38.1609 249.535 -18.452 316.3 74.3996 266.178Z" stroke="#0B3C69" stroke-opacity="0.17"/>
<path d="M82.7083 238.346C167.575 192.551 233.821 308.094 256.335 371.59C262.417 427.814 189.495 401.186 203.933 438.014C221.98 484.048 307.277 494.611 285.076 539.675C262.875 584.739 132.559 520.409 92.8265 616.016C53.0939 711.624 -76.6954 631.863 -72.2041 582.539C-67.7129 533.214 -88.4108 496.499 -122.803 445.288C-301.05 330.223 -243.001 202.93 -213.217 160.312C-183.433 117.694 -94.7001 137.796 -70.3293 178.506C-45.9585 219.217 -23.3752 295.59 82.7083 238.346Z" stroke="#0B3C69" stroke-opacity="0.17"/>
</svg>
