<svg width="354" height="354" viewBox="0 0 354 354" fill="none" xmlns="http://www.w3.org/2000/svg">
<g clip-path="url(#clip0_244_79)">
<path d="M176.603 116.151C193.534 83.1208 239.673 105.302 260.626 120.521C274.789 137.02 245.884 144.484 258.474 153.01C274.211 163.668 303.543 148.411 306.314 167.541C309.084 186.671 253.785 194.701 261.999 233.679C270.213 272.657 211.722 275.681 202.411 259.063C193.1 242.446 178.551 235.321 156.506 226.587C74.9751 228.988 65.6708 175.97 65.8354 155.962C66.0001 135.954 98.4963 122.971 115.079 130.562C131.663 138.153 155.44 157.44 176.603 116.151Z" stroke="#0B3C69" stroke-opacity="0.17"/>
<path d="M170.191 95.8004C191.207 54.7961 248.469 82.3257 274.474 101.216C292.05 121.695 256.174 130.964 271.798 141.547C291.33 154.775 327.735 135.833 331.172 159.579C334.609 183.325 265.974 193.3 276.164 241.684C286.355 290.069 213.76 293.828 202.206 273.202C190.652 252.575 172.595 243.731 145.236 232.892C44.0459 235.882 32.5038 170.068 32.7103 145.231C32.9168 120.394 73.25 104.275 93.8309 113.696C114.412 123.117 143.92 147.056 170.191 95.8004Z" stroke="#0B3C69" stroke-opacity="0.17"/>
<path d="M165.323 80.7116C189.339 33.8715 254.864 65.364 284.624 86.9652C304.743 110.376 263.708 120.945 281.589 133.047C303.941 148.175 345.576 126.553 349.522 153.689C353.469 180.825 274.959 192.179 286.647 247.472C298.335 302.764 215.29 307.015 202.059 283.438C188.829 259.862 168.166 249.745 136.862 237.343C21.1036 240.695 7.85826 165.486 8.07886 137.107C8.29947 108.727 54.4298 90.3338 77.9798 101.111C101.53 111.889 135.302 139.262 165.323 80.7116Z" stroke="#0B3C69" stroke-opacity="0.17"/>
</g>
<defs>
<clipPath id="clip0_244_79">
<rect width="354" height="354" fill="white"/>
</clipPath>
</defs>
</svg>
