<svg xmlns="http://www.w3.org/2000/svg" version="1.1" viewBox="-5.0 -10.0 110.0 135.0">
 <path d="m85.512 51.945c-5.7266 5.7617-13.789 8.5547-21.852 7.5703l-25.398 25.398c-4.1406 4.1328-10.172 5.7422-15.82 4.2266-5.6523-1.5156-10.066-5.9297-11.582-11.582-1.5156-5.6484 0.09375-11.68 4.2266-15.82l25.398-25.398c-0.69922-6.2969 0.87109-12.637 4.4297-17.875 3.5586-5.2422 8.8711-9.0391 14.984-10.707 6.1094-1.6719 12.613-1.1055 18.344 1.5977l-13.086 13.086c-1.0078 1.0195-1.5742 2.3984-1.5625 3.8359 0.007812 1.4375 0.58594 2.8086 1.6055 3.8164l4.707 4.707c1.0078 1.0195 2.3789 1.5977 3.8164 1.6055 1.4375 0.011719 2.8164-0.55469 3.8359-1.5625l13.086-13.086c2.3555 4.9453 3.1289 10.504 2.2109 15.906-0.91797 5.4023-3.4844 10.391-7.3438 14.281z"/>
<text x="0.0" y="117.5" font-size="5.0" font-weight="bold" font-family="Arbeit Regular, Helvetica, Arial-Unicode, Arial, Sans-serif" fill="#000000">Created by sugeng riyanto</text><text x="0.0" y="122.5" font-size="5.0" font-weight="bold" font-family="Arbeit Regular, Helvetica, Arial-Unicode, Arial, Sans-serif" fill="#000000">from Noun Project</text></svg>