<svg width="217" height="70" viewBox="0 0 217 70" fill="none" xmlns="http://www.w3.org/2000/svg">
<path d="M38.46 58.87C35.5213 58.87 32.7953 58.1353 30.282 56.666C27.8073 55.1967 25.8353 53.2247 24.366 50.75C22.8967 48.2367 22.162 45.5107 22.162 42.572V17.632H54.758V42.572C54.758 45.5107 54.0233 48.2367 52.554 50.75C51.0847 53.2247 49.0933 55.1967 46.58 56.666C44.1053 58.1353 41.3987 58.87 38.46 58.87ZM80.3496 58V27.84H65.0956V17.632H97.6916V27.84H82.4376V58H80.3496ZM141.959 47.734V58H111.219V17.632H113.365V47.734H141.959Z" fill="#EDEDED"/>
<mask id="path-2-inside-1_11_946" fill="white">
<path d="M0 12C0 5.37258 5.37258 0 12 0H150C156.627 0 162 5.37258 162 12V58C162 64.6274 156.627 70 150 70H12C5.37259 70 0 64.6274 0 58V12Z"/>
</mask>
<path d="M-4 12C-4 3.16344 3.16344 -4 12 -4H150C157.732 -4 164 2.26801 164 10L160 12C160 7.58172 155.523 4 150 4H12C7.58172 4 4 7.58172 4 12H-4ZM164 58C164 65.732 157.732 72 150 72H10C2.26801 72 -4 65.732 -4 58H4C4 63.5228 7.58172 68 12 68H150C155.523 68 160 63.5228 160 58H164ZM10 72C2.26801 72 -4 65.732 -4 58V12C-4 3.16344 3.16344 -4 12 -4V4C7.58172 4 4 7.58172 4 12V58C4 63.5228 7.58172 68 12 68L10 72ZM150 -4C157.732 -4 164 2.26801 164 10V58C164 65.732 157.732 72 150 72V68C155.523 68 160 63.5228 160 58V12C160 7.58172 155.523 4 150 4V-4Z" fill="#EDEDED" mask="url(#path-2-inside-1_11_946)"/>
<path d="M179.455 31.7227H182.492C184.986 31.7227 186.232 32.8815 186.232 35.1992C186.232 36.1107 186.053 36.8464 185.695 37.4062C185.337 37.9661 184.823 38.3112 184.152 38.4414V38.5195C184.96 38.7018 185.555 39.0697 185.939 39.623C186.33 40.1764 186.525 40.9414 186.525 41.918C186.525 43.194 186.219 44.1934 185.607 44.916C185.002 45.6387 184.159 46 183.078 46H179.455V31.7227ZM180.92 33.0703V37.8848H182.531C183.299 37.8848 183.853 37.6764 184.191 37.2598C184.53 36.8366 184.699 36.1823 184.699 35.2969C184.699 33.8125 183.96 33.0703 182.482 33.0703H180.92ZM180.92 39.2031V44.6523H182.834C184.253 44.6523 184.963 43.7083 184.963 41.8203C184.963 40.974 184.761 40.3262 184.357 39.877C183.96 39.4277 183.387 39.2031 182.639 39.2031H180.92ZM190.256 44.6133H194.172V46H188.742V31.7227H190.256V44.6133ZM200.051 31.5176C201.477 31.5176 202.57 32.1523 203.332 33.4219C204.094 34.6914 204.475 36.5013 204.475 38.8516C204.475 41.2018 204.09 43.015 203.322 44.291C202.561 45.5605 201.457 46.1953 200.012 46.1953C198.566 46.1953 197.466 45.5605 196.711 44.291C195.956 43.015 195.578 41.1921 195.578 38.8223C195.578 33.9525 197.069 31.5176 200.051 31.5176ZM200.051 32.9043C199.087 32.9043 198.361 33.4089 197.873 34.418C197.385 35.4206 197.141 36.8984 197.141 38.8516C197.141 40.8047 197.385 42.2858 197.873 43.2949C198.361 44.304 199.077 44.8086 200.021 44.8086C200.972 44.8086 201.691 44.3105 202.18 43.3145C202.668 42.3118 202.912 40.821 202.912 38.8418C202.912 34.8835 201.958 32.9043 200.051 32.9043ZM215.041 38.5684V45.5117C213.915 45.9674 212.727 46.1953 211.477 46.1953C209.888 46.1953 208.658 45.554 207.785 44.2715C206.913 42.9824 206.477 41.179 206.477 38.8613C206.477 36.5436 206.939 34.7402 207.863 33.4512C208.794 32.1621 210.106 31.5176 211.799 31.5176C212.906 31.5176 213.947 31.8203 214.924 32.4258C214.598 33.1484 214.403 33.5749 214.338 33.7051C213.465 33.1647 212.639 32.8945 211.857 32.8945C210.633 32.8945 209.693 33.4154 209.035 34.457C208.378 35.4922 208.049 36.957 208.049 38.8516C208.049 40.7461 208.355 42.2142 208.967 43.2559C209.579 44.2975 210.438 44.8184 211.545 44.8184C212.307 44.8184 212.971 44.7174 213.537 44.5156V39.9551H211.506V38.5684H215.041Z" fill="#EDEDED"/>
</svg>
